<svg width="500" height="129" fill="none" xmlns="http://www.w3.org/2000/svg"><path d="m109.3 21.6 12 26.2-1 33.2s-6.6 21.8-6.9 22c-.3.3-1.4-.2-4-5-2.7-4.9-9.5-14.6-10-17-.6-2.3-.8-19.3-.8-19.3L97 25l12.3-3.5Z" fill="#028F82"/><path d="M109.4 21.5s21.8 21.3 21.8 41.9c0 14.3-6.9 22.2-8.5 25l-6.4 10.1c-1 1.2-2 3.6-2.8 4.5-.7.9.1-6 1-8.8.9-2.8 3.3-18 3.3-28.1 0-11-.9-24.4-4.7-32.4-4.1-9-8-13.1-8-13.1l4.3.9Z" fill="#2EC48E"/><path d="M116 .2c-2.3-1.1-3 3.6-3 4.4 0 .8-2.2 3-4.4 5.4l-.4.3c-3.3 3.5-4.8 4.9-6.2 6.2l-1.4 1.3c1.8 1.9 1.9 3.8 1.9 3.8s2.4 0 3.9 2.6l5.1-5.3 1.5-1.6.5-.5a27 27 0 0 0 6.4-9c1.3-3-.2-5.8-4-7.6Z" fill="#028F82"/><path d="M83.2 100a66.2 66.2 0 0 1-32.7 15.4c-10.6 1.7-21 .1-29.4-4.3-6.6 2.4-13.5 1-17.5-4l-.4-.5 99.4-85.1c3 .3 4 2.6 4 2.6 1.4 1.8 2.2 9.4-1.7 15.8a50.5 50.5 0 0 1-1 30 68 68 0 0 1-20.7 30Z" fill="#FFDB2D"/><path d="M102.6 21.5c-1.1-7-9.4-7-15.8-4.6C68.6 6.5 43 10.6 23.5 27.4a67.7 67.7 0 0 0-21 31 49.5 49.5 0 0 0 0 31c-3.1 5.9-2.9 12.5.7 17.2l99.4-85.1Z" fill="#FFE671"/><path d="M11.7 72a34.4 34.4 0 0 1 9.8-28.6l6.4 7.4c-.3.3-8 7.6-6.5 20L11.7 72Z" fill="#FFF6C4"/><path d="m234.8 98.4-6.9 3.2c-2.3 1-4.7 1.9-7.4 2.7a71.7 71.7 0 0 1-18.9 2.4 42 42 0 0 1-27.4-8c-6.3-5.4-9.5-14.4-9.5-27 0-7.3 1.1-14.1 3.3-20.5A47.6 47.6 0 0 1 193.8 23a63.4 63.4 0 0 1 53.8 4.3l-4.6 25h-24a100.3 100.3 0 0 0 .6-7.8 1240.7 1240.7 0 0 1 .4-8.1V34c0-1-.3-2-.7-2.9a4 4 0 0 0-1.7-2.1c-.7-.6-1.7-1-2.9-1-2.3 0-4.4 1-6.3 3a27.2 27.2 0 0 0-5 7.7 68.6 68.6 0 0 0-4 10.8 140.5 140.5 0 0 0-5.2 35.3l.1 3.3c.1 1.4.4 2.7.8 4a8.6 8.6 0 0 0 2 3.2c1 .9 2.3 1.3 3.9 1.3 2.7 0 5.3-1.7 7.9-5 2.5-3.6 4.8-9.8 6.7-18.7h24.5l-5.3 25.5Zm19.4-45.7c4.5-2.2 9-3.9 13.7-4.8a72 72 0 0 1 30-.3c3.6.9 6.6 2.2 8.8 3.9 2.2 1.7 3.7 3.7 4.6 6 .9 2.4 1.3 5 1.3 8 0 1.7-.1 3.6-.4 5.5-.1 2-.4 3.7-.6 5l-6.2 29.7H284l-2.4-8.7h-.8a29.4 29.4 0 0 1-10 7.3 27.5 27.5 0 0 1-11 2.4c-2.1 0-4.2-.3-6.2-1-2-.5-3.9-1.5-5.5-2.7-1.5-1.4-2.8-3-3.8-5s-1.4-4.6-1.4-7.4c0-4.7 1.2-8.4 3.7-11a23 23 0 0 1 9.9-6.3c4.1-1.4 8.7-2.3 13.9-2.7 5.2-.3 10.4-.5 15.6-.5a131.8 131.8 0 0 0 1-8.2 8 8 0 0 0-1.3-4.5c-.8-1.4-2.5-2.1-5.2-2.1-3 0-5.3 1-6.8 2.8-1.4 1.8-2.4 4-2.8 6.6h-19.3l2.5-12Zm30.4 23.7h-2.4c-2.5 0-4.7.4-6.6 1-1.8.7-3.2 1.6-4.4 2.7a10.8 10.8 0 0 0-3.1 7.6c0 2.2.5 3.8 1.6 4.9 1.1 1 2.4 1.6 4 1.6 1.8 0 3.6-.7 5.4-2 1.8-1.4 3-3.2 3.4-5.4l2.1-10.4Zm53.9 51.9h-27l16.7-80.6h21.6l2.3 8.6h.8a30.7 30.7 0 0 1 22.2-9.5c3.1 0 5.7.5 7.7 1.5a12 12 0 0 1 5 3.7c1.3 1.6 2.1 3.6 2.7 5.8.5 2.3.8 4.6.8 7.2a88.9 88.9 0 0 1-1.5 14.1 75 75 0 0 1-2.6 9.6 35.3 35.3 0 0 1-4.7 8.9 22.1 22.1 0 0 1-7.1 6.6 19.3 19.3 0 0 1-10.2 2.5 26.1 26.1 0 0 1-12-3c-1.7-.8-3.2-1.9-4.5-3a14.8 14.8 0 0 1-2.8-3.8h-.8l-6.6 31.4Zm14-34.6c2.1 0 4-1.2 5.3-3.4 1.4-2.3 2.6-5 3.5-8a60 60 0 0 0 2.5-16.4c0-1.8-.3-3.3-1-4.4-.5-1.2-1.5-1.8-3-1.8-1.7 0-3.3.6-4.8 1.9a19.5 19.5 0 0 0-3.3 3l-5.1 24.8c.7 1 1.5 2 2.5 3 1 .8 2.1 1.3 3.4 1.3Zm53-46h21.6l2 10.1h1c2-3.2 4.5-6 7.7-8.2a21.3 21.3 0 0 1 22.6-.3l-5.8 27.8h-14.4a42 42 0 0 0-1.5-11.6c-.8-2.2-2-3.4-3.8-3.4a7.5 7.5 0 0 0-6 3.2l-8.4 40.4h-27l12-58Zm78.8 58h-26.9l12-58h27.2l-12.3 58ZM500 30a11.6 11.6 0 0 1-4.6 9.3 14 14 0 0 1-4.7 2.4 19 19 0 0 1-5.4.8c-3.5 0-6.5-.9-8.8-2.6-2.4-1.7-3.6-4.4-3.6-8a11.2 11.2 0 0 1 4.4-9.2 16 16 0 0 1 10.4-3.2c3.4 0 6.4.8 8.7 2.5 2.4 1.7 3.6 4.4 3.6 8Z" fill="#028F82"/></svg>