<svg width="183" height="47" fill="none" xmlns="http://www.w3.org/2000/svg"><path d="M81.2 25.2 80 23.7l-.6-.5a4 4 0 0 0-1.2-1l-1-.9-1.4-.8a23 23 0 0 0-4.3-1.9l-.5-.1-1.1-.3-.7-.1c-1.3-.3-2.5-.4-3.5-.4h-3.2v-.5c.1-1 .2-2.3-.3-3.4-.5-1-1.5-1.7-2.4-2.4a8 8 0 0 1-1.5-1.2l-.9-1.7c-.4-1-.8-2.1-1.7-2.8-1-.8-2.1-1-3.2-1.1-.7-.2-1.4-.2-1.9-.5l-1.5-1.2c-.8-.7-1.6-1.5-2.8-1.8l-.9-.1c-.8 0-1.6.2-2.4.5-.7.2-1.4.4-2 .4-.5 0-1.2-.2-1.9-.4a5.4 5.4 0 0 0-3.3-.4A6 6 0 0 0 33 2.9c-.6.5-1 1-1.5 1.2l-1.9.5c-1 .1-2.2.3-3.2 1-.9.8-1.4 2-1.7 3-.3.6-.5 1.2-.9 1.6-.4.5-.9.8-1.5 1.2-.9.7-1.9 1.3-2.4 2.4a6.6 6.6 0 0 0-.3 3.4v.5h-3.1c-1 0-2.2.1-3.6.4l-.6.1-1.1.3-.5.1-1.2.4-3.1 1.4-1.3.8-1.2 1-1.2 1-.5.4-1.4 1.6c-.2.2-.2.6 0 .8.2.2.3.2.5.2.1 0 .3 0 .4-.2l1.5-1.2.6-.4 1.2-.9 1-.7 1.4-.6c1-.5 1.9-.8 2.9-1.1l.9-.2.6-.2.8-.2.8-.1h.1l1.4-.3h4.2l-.5.8-.8 1.5-2.7.5h-.4l-1 .4-.4.1-1 .4-2.4 1.3-1 .7-.9.7-1 1-.3.3v.1l-1 1.2c-.2.3-.2.6 0 .9l.5.2c.2 0 .3 0 .4-.2l1.2-1 .6-.5.8-.6.9-.6 1-.5c.8-.4 1.5-.8 2.2-1l.8-.3h.4l.8-.3.5-.1.6-.1.6-.2h.6c.1.9.6 1.7 1 2.4l.1.1-1.2.3-2.8 1-.6.2-.8.4-.6.4-.6.4c-.8.5-1.6 1-2.3 1.7l-.9 1c-.2 0-.3.2-.4.4l-.4.4-.9 1.2-.2.3-.9 1.4c-.1.3 0 .7.2.8l.4.2c.2 0 .3-.1.4-.3l1-1.2.4-.4.9-1 .7-.6.5-.4a1510.8 1510.8 0 0 0 2.6-1.8l.7-.3.4-.3.4-.1.9-.4c.1 0 .3 0 .4-.2l.8-.2.5-.2.8-.2 1.5-.4v1.4c-.1 1-.2 2.2.3 3.3.5 1 1.5 1.8 2.4 2.4a8 8 0 0 1 1.5 1.2c.4.4.6 1 .9 1.7.4 1 .8 2.1 1.7 2.9 1 .7 2.2.9 3.2 1 .7.2 1.4.2 1.9.5L33 45c.8.7 1.6 1.6 2.9 1.8l.8.1c.8 0 1.6-.2 2.4-.5.7-.2 1.4-.4 2-.4.5 0 1.2.2 1.9.4a5.4 5.4 0 0 0 3.3.4c1.2-.2 2-1 2.8-1.8.6-.5 1-1 1.5-1.2l2-.5c1-.1 2.2-.3 3-1 1-.8 1.5-2 1.8-2.9.3-.7.6-1.3 1-1.7.3-.5.8-.8 1.4-1.2.9-.6 1.9-1.3 2.4-2.4.5-1 .4-2.3.4-3.3v-1.4l1.4.4.7.2.6.2.8.2.4.2.8.4.4.1.5.3c.3 0 .5.2.7.3l2 1.4.6.4.4.3.8.7.8 1c.2 0 .2.2.4.3a161.2 161.2 0 0 0 1.4 1.5l.4-.1c.2-.2.3-.5.2-.8L75 35l-.3-.4-1-1.2-.3-.4-.4-.5-1-.9a8.9 8.9 0 0 0-2.2-1.6l-.6-.5-.6-.3-.8-.4-.5-.3a17.5 17.5 0 0 0-4.2-1.2l.1-.1c.4-.7 1-1.6 1.1-2.5l.5.1.7.1.6.1.4.2c.3 0 .6 0 .9.2h.4l.8.4a23.4 23.4 0 0 1 4.1 2l.8.7.6.4 1.2 1c.1.2.2.3.4.3.1 0 .3 0 .4-.2.3-.2.3-.6.1-.9l-1-1.2-.3-.4-1-1-.8-.7H73l-1-.8-2.4-1.2-1-.4-.4-.2-1-.2-.4-.2-2.7-.4-.8-1.6-.5-.8h3.5l.6.1 1.5.2h.1l.9.2.7.1.7.2a29.8 29.8 0 0 1 3.7 1.3l1.3.7 1.1.7 1.2.8.6.4a41.9 41.9 0 0 0 2 1.5s.2 0 .3-.2c.3-.1.3-.5.1-.8ZM27.7 7.4c.5-.4 1.3-.5 2.2-.7.8-.1 1.7-.3 2.4-.6.8-.4 1.4-1 2-1.5.7-.6 1.3-1.2 2-1.4h.3c.5 0 1.2.2 1.9.4.8.2 1.6.5 2.5.5.9 0 1.7-.3 2.5-.5.7-.2 1.3-.4 1.8-.4h.4a5 5 0 0 1 2 1.4l2 1.5c.7.3 1.5.5 2.4.6.9.1 1.7.3 2.2.7l.8 1.2c-1.1.6-5 2.3-14 1.6h-.2c-9 .7-13-1-14.1-1.6.3-.5.6-1 .9-1.2ZM52 41.6c-.8.1-1.7.3-2.4.6a8 8 0 0 0-2 1.5c-.7.6-1.3 1.2-2 1.3h-.3l-1.9-.3a7 7 0 0 0-2.5-.5 7 7 0 0 0-2.5.5c-.7.2-1.3.4-1.8.4h-.4a5 5 0 0 1-2-1.4 8.7 8.7 0 0 0-2-1.5c-.7-.3-1.5-.5-2.4-.6-.9-.1-1.7-.3-2.2-.7l-.1-.1c3-2.3 7.7-4.9 13.4-5.3 5.7.4 10.4 3 13.4 5.3-.6.5-1.4.7-2.3.8Zm9.4-15.2-.5.8-1.7-.1a22 22 0 0 0-4.4.2c-.6 0-1.2.2-1.7.3-2 .4-3.2 1-3.3 1-.2 0-.4.4-.3.7 0 .3.4.5.7.4l3.1-.4H59l1.2.1v3.2l-.6.6c-7.4 5.6-15.2-1-18.2-4a.8.8 0 0 0-.6-.2c-.2 0-.4 0-.6.3-2.3 2.4-10.4 9.9-18.1 4l-.7-.6v-3.2l1.2-.1H25a53.7 53.7 0 0 1 6.7.4c.3 0 .6 0 .7-.4 0-.3 0-.7-.4-.8l-3.2-1-1.7-.2-2-.2c-.6-.2-1.4-.2-2.3-.2l-1.7.1-.5-.8c-.3-.5-.6-1-.7-1.5h.9a34.3 34.3 0 0 1 8 1.2l3 .9c.3.1.7 0 .8-.3.2-.3 0-.7-.2-.8a17.9 17.9 0 0 0-4.8-2.2l-2-.6a18 18 0 0 0-4.9-.6h-.3l.2-.5.9-1.6h1l.3.1 2.3.5 4.1 1 3.5 1.3c.3.1.6 0 .8-.3.2-.3 0-.6-.2-.8a24.2 24.2 0 0 0-7.7-3.3 25.9 25.9 0 0 0-3.8-.8v-.8c0-1-.1-1.8.1-2.3.3-.6 1-1.1 1.8-1.6l1.9-1.6.6-1a13 13 0 0 0 6 4c6.5 2 8.1 7.6 8.2 7.8 0 .4.4.6.8.6s.7-.2.8-.6a12 12 0 0 1 8.2-7.8 11 11 0 0 0 3.6-1.8c1-.8 1.8-1.5 2.4-2.3a5.6 5.6 0 0 0 2.5 2.7c.8.5 1.5 1 1.8 1.6.2.5.2 1.4.1 2.3v.8l-1.1.2a59.7 59.7 0 0 0-5 1.3A24.2 24.2 0 0 0 49 22c-.3.2-.4.5-.3.8.2.3.6.4.8.3l3.5-1.3a47 47 0 0 1 6.4-1.4h.3l1-.2.9 1.7.2.4h-.3c-.9 0-1.8.1-2.6.3-.7 0-1.5.2-2.3.4l-2 .6-1.6.6c-2 .8-3.1 1.5-3.2 1.5-.3.2-.3.6-.2.9.2.2.5.4.8.3l3-1a38.8 38.8 0 0 1 8-1.2h1l-1 1.6Zm27.8 4V21c0-1 .8-7.3-1.6-7.3-2.4 0-2.7 2.1-2.7 3.5 0 2.8 3 3.2 3 4.5 0 .7-1 1.2-1.7 1.2h-.4c-1.7-.4-3.6-3-3.6-6.1 0-2.9 1.6-5.9 5.4-5.9 4.5 0 4 3.6 4.1 6.5l.1 4.7v6.6h3.6c2.1 0 1.1-.7 1.8-.7.8 0 1.8-.1 1.8.5 0 1.8-.7 2.6-1.7 2.6H90c-.3 0-.7-.5-.7-.8Zm11.9-8v-1.5c0-.6-.3-1.3-1-1.4a2 2 0 0 1-.4-1.3c0-.6 0-1.3.9-1.3 2.9 0 3.2 1.7 3.2 4.1l-.2 9.6c0 1-2.6.1-2.6.1v-8.4Zm15.2 2.6c0 3.7-.5 6.3-4.8 6.3h-1.1c-3.7 0-3.8-3.5-3.8-6.3l-.1-3c0-3.5 1.3-5.4 4.8-5.4 3.8 0 5 2.2 5 5.6V25Zm-7.5-2.4V25c0 1.8 0 3.6 2.3 3.6 2.4 0 2.7-.7 2.8-3v-3.3c0-1.6-.2-3.2-2.3-3.2-2.4 0-2.8 1.3-2.8 3.5Zm16.7-.6c0-1.2 0-3-1.5-3-1.4 0-2 .5-2 1.9l.1 5.7v3c0 1.2-.3 1.4-1.5 1.4-.4 0-.9-.1-1-.5-.5-.8-.3-1.7-.3-2.6l.2-7.8c0-.4-.1-1-.6-1-.5-.2-.6-1.5-.6-2 0-.7 1.2-.7 1.7-.7.3 0 1.4.6 1.4.9a5 5 0 0 1 3-1c3 0 3.6 2.4 3.6 5v7.4c0 3-.1 6.6 3.8 6.6 2.7 0 1.7-1.7 3.5-1.7.5 0 1 .5 1 1 0 2.3-2.6 3.3-4.5 3.3-4.2 0-6.3-2.8-6.3-6.8 0-3-.2-6 0-8.8V22Zm7.8-7c-.9 0-2-.8-2-1.7v-.4c0-.8.6-1.5 1.4-1.5 1 0 2 .7 2 1.7 0 .7-.7 1.8-1.4 1.8Zm1 13.5c.4.1.6.2.8.6-.2 1 .2 2-1.1 2-.6 0-1.8-.3-2-1-.6-2-.3-5-.3-7.1v-2.1l-.2-3.5c0-.8.2-1 .7-1h.9c1.1 0 1 .6 1 1.6l-.1 2.7v7.7l.3.1Zm6 .6c1.2-2.6 3-5.5 4.3-8.1.4-.8.9-1.5 1.1-2.4.1-.6 0-1.6-.7-1.6h-5c-1.6 0-2.7.2-2.7 2.3l.1.6c.5.3 1.2.6 1.8.6.4 0 .4-.5.6-.8.4-.5 1.1-.3 1.6-.3h1.6l-3 4.8-2.1 4.1c-.5 1.1-1.1 3 .9 3l4.8-.1c1.4 0 2.4-.2 2.4-2 0-1-.2-1.4-1.2-1.4 0 0-1.4-.1-1.4.2 0 1-1.3 1.1-2 1.1h-1Zm17-7.9c0 3-1.4 5-4.5 5-.8 0-1.5-.3-2.2-.4 0 1.7.5 3 2.4 3 .7 0 1.6-.3 1.6-1.1v-.4c0-1 2.7-1.3 2.7.5 0 3-1.8 3.7-4.5 3.7-4 0-4.5-2-4.9-5.5v-3.6c0-3 .8-5.6 4.2-5.6 2.9 0 5.3 1.3 5.3 4.4Zm-4.2 2.3h.1c1.6 0 1.9-1.1 1.9-2.4 0-1.4-.8-1.9-2.3-1.9-2.4 0-2.5 1-2.5 3v.8c.7.5 2 .5 2.8.5Zm11.1 3.5-1.2-.1V28c0 1 0 2.6-.6 2.8-.6.3-2.2.2-2.2-.7v-.8l.3-7.8c0-.3 0-1.9-.2-2.1l-.8-.5c-.3 0-.2-.4-.2-1.2 0-.5.2-1 .8-1 .7 0 1.5.4 2.1.6 1-.6 1.7-.7 2.9-.7 2.4 0 3.6 2.4 3.6 4.5 0 2-.2 4-2 5.3 0 1.2.4 2 1.9 2.3.3 0 .5.6.5 1 0 1-.5 1.2-1.4 1.2-2.3 0-3.1-2.1-3.5-4Zm-1-7-.2 4v.4c1.9-.1 3.2-.8 3.2-2.9 0-1-.3-2.1-1.7-2.1a3 3 0 0 0-1.4.6Zm18.4-5c0 1.4-.8 1.7-2 1.7-1.6 0 .5-3.6-3.3-3.6-1.6 0-2.5 1.4-2.5 2.9 0 1.3 2.6 3 3.7 3.5 2.6 1.3 4.9 3.4 4.9 6.5 0 3.7-2.2 5.6-5.9 5.6-3 0-5.3-2-5.3-5.1l-.1-1c0-.8.5-.8 1-.8a3 3 0 0 1 1.7.4c.4 2 .2 3.8 2.8 3.8 1.7 0 3-.7 3-2.5 0-5-8.7-5-8.7-10.2 0-4 2-5.8 5.8-5.8 2.9 0 4.9 1.7 4.9 4.6Z" fill="#000"/></svg>