<svg width="193" height="58" viewBox="0 0 193 58" fill="none" xmlns="http://www.w3.org/2000/svg">
<path d="M86.3705 29.9286C86.3705 29.8883 85.8891 29.3244 85.0466 28.398L85.0064 28.3577C84.8459 28.1966 84.6453 28.0354 84.4447 27.834C84.1238 27.5118 83.7627 27.1493 83.2812 26.7868L82.198 25.9812L82.1578 25.9409C81.7165 25.6589 81.2752 25.4172 80.8338 25.1353C79.7907 24.5713 78.7476 24.088 77.7445 23.7255C77.3433 23.5643 76.9421 23.4435 76.5409 23.3227C76.3804 23.2824 76.1798 23.2421 76.0193 23.1615C75.6582 23.0407 75.257 22.9601 74.8959 22.8796C74.6953 22.8393 74.4947 22.799 74.254 22.7587C72.8899 22.5171 71.7665 22.3962 70.7234 22.3559C70.1617 22.3157 69.6 22.3157 68.9982 22.3157C68.6371 22.3157 68.2359 22.3559 67.8748 22.3559C67.7945 22.3559 67.7143 22.3559 67.6341 22.3559C67.6341 22.1948 67.6742 21.9934 67.6742 21.8323C67.7544 20.785 67.8347 19.5363 67.3131 18.489C66.7915 17.4015 65.7885 16.7167 64.9058 16.1125C64.304 15.7097 63.7824 15.3069 63.4214 14.9041C63.0603 14.461 62.8195 13.8568 62.5387 13.172C62.1375 12.165 61.6962 11.0372 60.7734 10.3122C59.8506 9.54683 58.647 9.38571 57.6038 9.22459C56.8816 9.10375 56.2397 9.02319 55.7181 8.74122C55.2367 8.49954 54.7552 8.05646 54.2337 7.5731C53.4312 6.84805 52.5486 6.00217 51.345 5.72021C51.0641 5.63965 50.7833 5.63965 50.5024 5.63965C49.6599 5.63965 48.8575 5.88133 48.055 6.12301C47.373 6.32441 46.6909 6.52581 46.1292 6.52581C45.5274 6.52581 44.8855 6.32441 44.2034 6.12301C43.401 5.88133 42.5986 5.63965 41.756 5.63965C41.4752 5.63965 41.1542 5.67993 40.9135 5.72021C39.7099 6.00217 38.8272 6.80777 38.0248 7.5731C37.5032 8.05646 37.0218 8.49954 36.5403 8.74122C36.0187 8.98291 35.3768 9.10375 34.6546 9.22459C33.6115 9.38571 32.4079 9.58711 31.4851 10.3122C30.5623 11.0775 30.0808 12.2053 29.7198 13.172C29.4389 13.8568 29.1982 14.461 28.8371 14.9041C28.476 15.3472 27.9544 15.7097 27.3526 16.1125C26.47 16.7167 25.4669 17.4015 24.9454 18.489C24.4238 19.5766 24.504 20.785 24.5843 21.8323C24.5843 22.0337 24.6244 22.1948 24.6244 22.3559C24.5442 22.3559 24.4639 22.3559 24.3837 22.3559C24.0226 22.3559 23.6214 22.3157 23.2603 22.3157C22.6585 22.2754 22.0968 22.3157 21.5351 22.3559C20.4919 22.3962 19.3686 22.5171 17.9643 22.7587C17.7637 22.799 17.5631 22.8393 17.3625 22.8796C17.0014 22.9601 16.6002 23.0407 16.199 23.1615C16.0385 23.2018 15.8379 23.2824 15.6774 23.3227C15.2762 23.4435 14.875 23.5643 14.5139 23.6852C13.4708 24.0477 12.4276 24.5311 11.3845 25.095C10.9432 25.377 10.5018 25.6186 10.0605 25.9006L10.0204 25.9409L8.89698 26.7868C8.45565 27.1493 8.05444 27.5118 7.73347 27.7938C7.53287 27.9952 7.37239 28.1563 7.17178 28.3174L7.13166 28.3577C6.28912 29.2841 5.80767 29.8481 5.80767 29.8883C5.60706 30.13 5.64719 30.4925 5.84779 30.7342C5.96815 30.8551 6.12864 30.8953 6.28912 30.8953C6.4496 30.8953 6.56997 30.8551 6.69033 30.7342C6.69033 30.7342 7.25202 30.2509 8.21493 29.4453C8.41553 29.3244 8.57601 29.1633 8.77662 29.0425C9.13771 28.7605 9.53892 28.4785 9.98025 28.1966C10.3012 27.9952 10.7024 27.7535 11.1036 27.5118C11.545 27.3104 11.9462 27.0687 12.3875 26.8673C13.3905 26.4242 14.3133 26.0617 15.2762 25.7798C15.5571 25.6992 15.878 25.6186 16.199 25.5381C16.3996 25.4978 16.6403 25.4172 16.8409 25.377L17.6032 25.2158C17.8841 25.1756 18.1649 25.095 18.4056 25.0547L18.526 25.0144C19.0476 24.9339 19.4889 24.8533 19.9704 24.813C20.2111 24.813 20.4518 24.7727 20.6925 24.7727C21.0135 24.7325 21.2944 24.7325 21.6153 24.7325C22.1369 24.6922 22.6585 24.6922 23.18 24.6922C23.4609 24.6922 23.7819 24.6922 24.1028 24.7325C23.9825 25.0144 23.822 25.2561 23.6615 25.5381C23.3806 26.0214 23.0998 26.5451 22.8591 27.109C21.9764 27.1896 21.1339 27.3507 20.171 27.5521H20.1308C19.9704 27.5924 19.85 27.6326 19.6895 27.6729C19.3685 27.7535 19.0476 27.834 18.7266 27.9549C18.5661 27.9952 18.4458 28.0757 18.2853 28.116C18.0044 28.2368 17.6835 28.3174 17.4026 28.4785C16.5601 28.8411 15.7577 29.2841 14.9552 29.7675C14.5942 30.0092 14.2732 30.2509 13.9522 30.4523C13.9121 30.4523 13.9121 30.4925 13.872 30.4925C13.5911 30.7342 13.3103 30.9759 13.0294 31.2176C12.6282 31.5398 12.3073 31.9023 12.0264 32.1843C11.9061 32.3051 11.7857 32.426 11.7054 32.5065C11.7054 32.5065 11.6653 32.5468 11.6653 32.5871L10.7024 33.8358C10.5018 34.0775 10.5419 34.44 10.7827 34.6817C10.903 34.8025 11.0635 34.8428 11.224 34.8428C11.3845 34.8428 11.5048 34.8025 11.6252 34.6817C11.6252 34.6817 12.0665 34.2789 12.8288 33.5941C13.0294 33.4733 13.1899 33.3122 13.3905 33.151C13.6313 32.9496 13.9121 32.7482 14.1929 32.5468C14.5139 32.3454 14.8349 32.144 15.0756 31.9829C15.3966 31.8218 15.7175 31.6204 16.0385 31.4593C16.8811 31.0565 17.6032 30.7342 18.3254 30.4925C18.5661 30.412 18.847 30.3314 19.1679 30.2106C19.2883 30.1703 19.4087 30.13 19.5692 30.0897C19.8099 30.0092 20.0907 29.9286 20.3716 29.8883C20.5321 29.8481 20.6524 29.8078 20.8129 29.7675C21.0536 29.7272 21.2542 29.6869 21.4548 29.6467C21.6554 29.6064 21.8962 29.5661 22.0567 29.5258C22.2573 29.5258 22.4177 29.4855 22.6183 29.4453C22.7788 30.3717 23.2603 31.1773 23.7016 31.9023C23.7417 31.9426 23.7417 31.9829 23.7819 32.0232C23.3806 32.1037 22.9393 32.2246 22.5381 32.3051C21.495 32.5871 20.4919 32.9899 19.7296 33.2719H19.6895C19.529 33.3524 19.3284 33.433 19.1679 33.5136C18.8871 33.6344 18.6464 33.7552 18.3254 33.9164C18.1248 34.0372 17.9242 34.158 17.7236 34.2789C17.523 34.3997 17.2823 34.5206 17.0817 34.6817C16.3194 35.165 15.5571 35.729 14.8349 36.4137C14.5139 36.736 14.2331 37.0179 13.9121 37.2999C13.7516 37.461 13.6313 37.6221 13.4708 37.7833C13.3504 37.9041 13.2702 38.0249 13.1498 38.1458C12.7486 38.5486 12.4677 38.9917 12.227 39.3542C12.1468 39.475 12.0665 39.5959 11.9863 39.6764L11.9462 39.7167C11.4246 40.6029 11.1438 41.1265 11.1438 41.1265C10.9833 41.4085 11.0635 41.771 11.3444 41.9321C11.4647 42.0127 11.5851 42.053 11.6653 42.053C11.8659 42.053 12.0264 41.9724 12.1468 41.8113C12.1468 41.8113 12.5079 41.3279 13.1498 40.5626C13.23 40.4418 13.3504 40.3612 13.4708 40.2001C13.7516 39.9181 14.0325 39.5959 14.3936 39.2333C14.6343 38.9917 14.875 38.7903 15.1559 38.5486C15.3163 38.4277 15.4367 38.3069 15.5972 38.1861C15.7577 38.0652 15.9181 37.9444 16.0786 37.8235C16.8008 37.2999 17.4829 36.8568 18.205 36.4137C18.4056 36.2929 18.6464 36.172 18.8871 36.0512C19.0476 35.9706 19.2081 35.8901 19.3685 35.8095L19.7698 35.6484C20.0506 35.5276 20.3315 35.4067 20.6123 35.2859C20.7327 35.2456 20.8931 35.2053 21.0135 35.1248C21.2944 35.0039 21.5752 34.9234 21.8159 34.8428C22.0165 34.8025 22.177 34.722 22.3776 34.6817C22.6183 34.6011 22.8591 34.5206 23.1399 34.4803C23.6214 34.3594 24.1028 34.2386 24.6244 34.1178C24.6244 34.5206 24.6244 35.0039 24.5843 35.447C24.504 36.4943 24.4238 37.743 24.9454 38.7903C25.4669 39.8778 26.47 40.5626 27.3526 41.1668C27.9544 41.5696 28.476 41.9724 28.8371 42.3752C29.1982 42.8183 29.4389 43.4225 29.7198 44.1073C30.121 45.1143 30.5623 46.2421 31.4851 46.9671C32.4079 47.7325 33.6115 47.8936 34.6546 48.0547C35.3768 48.1756 36.0187 48.2561 36.5403 48.5381C37.0218 48.7798 37.5032 49.2228 38.0248 49.7062C38.8272 50.4312 39.7099 51.2771 40.9135 51.5591C41.1943 51.6397 41.4752 51.6396 41.756 51.6396C42.5986 51.6396 43.401 51.398 44.2034 51.1563C44.8855 50.9549 45.5675 50.7535 46.1292 50.7535C46.6909 50.7535 47.373 50.9549 48.055 51.1563C48.8575 51.398 49.6599 51.6396 50.5024 51.6396C50.7833 51.6396 51.1042 51.5994 51.345 51.5591C52.5486 51.2771 53.4312 50.4715 54.2337 49.7062C54.7552 49.2228 55.2367 48.7798 55.7181 48.5381C56.2397 48.2964 56.8816 48.1756 57.6038 48.0547C58.647 47.8936 59.8506 47.6922 60.7734 46.9671C61.6962 46.2018 62.1776 45.074 62.5387 44.1073C62.8195 43.4225 63.0603 42.8183 63.4214 42.3752C63.7824 41.9321 64.304 41.5696 64.9058 41.1668C65.7885 40.5626 66.7915 39.8778 67.3131 38.7903C67.8347 37.7027 67.7544 36.4943 67.6742 35.447C67.6341 34.9636 67.5939 34.5206 67.6341 34.1178C68.1556 34.2386 68.6371 34.3192 69.1185 34.4803C69.3593 34.5608 69.6 34.6011 69.8407 34.6817C70.0413 34.722 70.2018 34.8025 70.4024 34.8428C70.6833 34.9234 70.9641 35.0442 71.2048 35.1248C71.3252 35.165 71.4857 35.2456 71.606 35.2859C71.8869 35.4067 72.1677 35.5276 72.4486 35.6484L72.8498 35.8095C73.0103 35.8901 73.1708 35.9706 73.3312 36.0512C73.572 36.172 73.8127 36.2929 74.0133 36.4137C74.6953 36.8165 75.4175 37.2999 76.0996 37.7833C76.2601 37.9041 76.4205 38.0652 76.581 38.1861C76.7415 38.3069 76.8619 38.4277 76.9822 38.5083C77.2631 38.75 77.5439 38.9917 77.7847 39.2333C78.1056 39.5556 78.4266 39.8778 78.6673 40.1598C78.7877 40.2806 78.8679 40.4015 78.9883 40.5223C79.6302 41.3279 79.9913 41.771 79.9913 41.771C80.1117 41.9321 80.3123 42.0127 80.4728 42.0127C80.5931 42.0127 80.7135 41.9724 80.7937 41.8918C81.0746 41.7307 81.1548 41.3682 80.9943 41.0862C80.9943 41.0862 80.7135 40.5626 80.1919 39.6764L80.1518 39.6361C80.0716 39.5153 79.9913 39.4347 79.9111 39.3139C79.6703 38.9514 79.3895 38.5486 78.9883 38.1055C78.8679 37.9847 78.7877 37.8638 78.6673 37.743C78.5068 37.5819 78.3865 37.4207 78.226 37.2193C77.9451 36.9374 77.6242 36.6554 77.3032 36.3332C76.581 35.6887 75.8187 35.1248 75.0564 34.6414C74.8558 34.5206 74.6151 34.3594 74.4145 34.2386C74.2139 34.1178 74.0133 33.9969 73.8127 33.8761C73.5318 33.715 73.251 33.5941 73.0103 33.4733C72.8498 33.3927 72.6492 33.3122 72.4887 33.2316H72.4486C71.6863 32.9094 70.6833 32.5065 69.6401 32.2649C69.1988 32.144 68.7976 32.0635 68.3562 31.9829C68.3964 31.9426 68.3964 31.9023 68.4365 31.8621C68.8377 31.137 69.3191 30.2911 69.5197 29.405C69.7203 29.4453 69.8808 29.4453 70.0413 29.4855C70.282 29.5258 70.4826 29.5661 70.6832 29.6064C70.8839 29.6467 71.1246 29.6869 71.3252 29.7272C71.4857 29.7675 71.606 29.8078 71.7665 29.8481C72.0474 29.9286 72.3282 29.9689 72.5689 30.0495C72.6893 30.0897 72.8097 30.13 72.9701 30.1703C73.251 30.2509 73.5318 30.3314 73.8127 30.4523C74.4947 30.6939 75.2169 31.0162 76.0595 31.419C76.3804 31.6204 76.7415 31.8218 77.0625 31.9829C77.3835 32.2246 77.6643 32.3857 77.9451 32.5468C78.226 32.7482 78.5068 32.9496 78.7476 33.151C78.9482 33.3122 79.1488 33.4733 79.3093 33.5941C80.0314 34.2789 80.4728 34.6414 80.5129 34.6817C80.6332 34.7622 80.7536 34.8428 80.9141 34.8428C81.0746 34.8428 81.2351 34.8025 81.3554 34.6817C81.5962 34.4803 81.5962 34.1178 81.4357 33.8358L80.4728 32.5871C80.4728 32.5468 80.4326 32.5468 80.4326 32.5065C80.3123 32.3857 80.232 32.3051 80.1117 32.1843C79.8308 31.9023 79.5099 31.5398 79.1086 31.1773C78.8679 30.9759 78.5871 30.7342 78.3062 30.4925C78.2661 30.4925 78.2661 30.4523 78.226 30.4523C77.905 30.2509 77.5439 30.0092 77.1828 29.7272C76.3804 29.2439 75.578 28.8008 74.7756 28.4382C74.4546 28.3174 74.1738 28.1966 73.8929 28.0757C73.7324 28.0354 73.6121 27.9549 73.4115 27.9146C73.0905 27.7938 72.7695 27.7132 72.4486 27.6326C72.2881 27.5924 72.1677 27.5521 72.0072 27.5118H71.9671C71.0042 27.3104 70.1617 27.1493 69.279 27.0687C69.0383 26.5048 68.7574 25.9812 68.4766 25.4978C68.3161 25.2158 68.1556 24.9339 68.0353 24.6922C68.3562 24.6922 68.6772 24.6519 68.9982 24.6519C69.5197 24.6116 70.0012 24.6519 70.5629 24.6922C70.8437 24.6922 71.1647 24.7325 71.4455 24.7325C71.6863 24.7727 71.927 24.7727 72.1276 24.7727C72.6091 24.813 73.0905 24.8936 73.6121 24.9741H73.7324C74.0133 25.0144 74.2941 25.095 74.575 25.1353L75.3373 25.2964C75.5379 25.3367 75.7385 25.4172 75.9792 25.4575C76.3002 25.5381 76.6211 25.6186 76.902 25.6992C77.8649 25.9812 78.7877 26.3437 79.7506 26.7868C80.1919 27.0284 80.6332 27.2298 81.0345 27.4715C81.4357 27.7132 81.7968 27.9549 82.1578 28.1563C82.5992 28.4382 83.0004 28.7202 83.3615 29.0022C83.5621 29.1633 83.7627 29.2841 83.9232 29.405C84.8861 30.2509 85.4478 30.6939 85.4478 30.6939C85.5681 30.7745 85.6885 30.8551 85.849 30.8551C86.0095 30.8551 86.1699 30.8148 86.2903 30.6939C86.5711 30.5731 86.5711 30.2106 86.3705 29.9286ZM32.7288 12.0442C33.2504 11.6414 34.0528 11.5206 34.9355 11.3594C35.7379 11.2386 36.6206 11.0775 37.3829 10.715C38.1452 10.3524 38.747 9.78851 39.3488 9.22459C40.0308 8.62038 40.6327 8.05646 41.2746 7.89534C41.395 7.85506 41.5153 7.85506 41.6758 7.85506C42.1974 7.85506 42.8393 8.05646 43.5214 8.25786C44.3238 8.49954 45.1663 8.74122 46.049 8.74122C46.9316 8.74122 47.7742 8.49954 48.5766 8.25786C49.2587 8.05646 49.9006 7.85506 50.4222 7.85506C50.5827 7.85506 50.703 7.85506 50.8234 7.89534C51.4653 8.05646 52.1072 8.62038 52.7492 9.22459C53.351 9.78851 53.9929 10.3524 54.7151 10.715C55.4774 11.0775 56.3199 11.2386 57.1625 11.3594C58.0451 11.4803 58.8877 11.6414 59.3691 12.0442C59.6901 12.3262 59.9308 12.729 60.1716 13.2123C59.0883 13.8568 55.1966 15.5889 46.0891 14.8235C46.049 14.8235 46.0089 14.8235 45.9286 14.8235C36.9415 15.5889 32.9696 13.8568 31.8462 13.2123C32.1671 12.729 32.4079 12.2859 32.7288 12.0442ZM57.2026 46.2824C56.4002 46.4032 55.5175 46.5643 54.7552 46.9269C53.9929 47.2894 53.3911 47.8533 52.7893 48.4172C52.1073 49.0214 51.5054 49.5854 50.8635 49.7465C50.7431 49.7868 50.6228 49.7868 50.4623 49.7868C49.9006 49.7868 49.2988 49.5854 48.6167 49.384C47.8143 49.1423 46.9718 48.9006 46.0891 48.9006C45.2064 48.9006 44.3639 49.1423 43.5615 49.384C42.8794 49.5854 42.2375 49.7868 41.7159 49.7868C41.5554 49.7868 41.4351 49.7868 41.3147 49.7465C40.6728 49.5854 40.0308 49.0214 39.3889 48.4172C38.7871 47.8533 38.1452 47.2894 37.423 46.9269C36.6607 46.5643 35.8181 46.4032 34.9756 46.2824C34.0929 46.1615 33.2504 46.0004 32.7689 45.5976C32.7288 45.5573 32.6887 45.5171 32.6486 45.4768C35.6978 43.2211 40.3518 40.6432 46.0891 40.2001C51.8264 40.6432 56.4804 43.2211 59.5296 45.4768C59.4895 45.5171 59.4494 45.5573 59.4093 45.5976C58.9278 46.0407 58.0853 46.1615 57.2026 46.2824ZM66.5909 31.0565C66.4304 31.2981 66.3101 31.5801 66.1496 31.8621C65.5879 31.8218 65.0262 31.7815 64.4244 31.7412C63.5016 31.7009 62.7393 31.7412 62.0572 31.7815C61.2949 31.8218 60.6129 31.9023 59.971 31.9829C59.3691 32.0635 58.7673 32.144 58.2458 32.2649C56.2798 32.708 55.0762 33.2316 55.0361 33.2316C54.7552 33.3524 54.5948 33.6747 54.675 33.9969C54.7552 34.3192 55.0762 34.4803 55.3972 34.44C55.3972 34.44 56.6409 34.2386 58.5266 34.0372C59.7302 33.9164 60.9339 33.8761 62.0974 33.9164C62.7794 33.9164 63.4615 33.9566 64.2238 33.9969H64.2639C64.6651 34.0372 65.0262 34.0775 65.3873 34.1178C65.3472 34.722 65.3873 35.2859 65.4274 35.8901C65.4675 36.3734 65.5076 36.8165 65.4675 37.2596C65.1867 37.5013 64.9058 37.743 64.7855 37.8638C57.4032 43.503 49.5796 36.9777 46.5706 33.9164C46.4101 33.7552 46.2095 33.6747 45.9687 33.6747C45.728 33.6747 45.5274 33.7552 45.3669 33.9566C43.08 36.3734 34.9756 43.8656 27.1921 37.9444C27.0317 37.8235 26.7508 37.5819 26.5101 37.3805C26.47 36.9374 26.5101 36.454 26.5502 35.9706C26.5903 35.4067 26.6304 34.8025 26.5903 34.1983C26.9514 34.158 27.3125 34.1178 27.7137 34.0775H27.794C28.5562 34.0372 29.2784 33.9969 29.9204 33.9969C31.0839 33.9969 32.2875 34.0372 33.4911 34.1178C35.4169 34.2789 36.6206 34.5206 36.6206 34.5206C36.9415 34.5608 37.2224 34.3997 37.3427 34.0775C37.423 33.7552 37.3026 33.433 36.9816 33.3122C36.9415 33.2719 35.6978 32.7482 33.772 32.3454C33.2504 32.2246 32.6486 32.144 32.0468 32.0635C31.4048 31.9829 30.7228 31.9023 30.0006 31.8621C29.3988 31.7009 28.6365 31.7009 27.7137 31.7009C27.1119 31.7009 26.5502 31.7412 25.9885 31.8218C25.8681 31.5398 25.7077 31.2981 25.5472 31.0162C25.2262 30.4523 24.9454 29.9286 24.7849 29.4453C25.1058 29.4453 25.3867 29.4453 25.7077 29.4453C26.6304 29.4855 27.4329 29.5258 28.1149 29.6064C28.8772 29.6869 29.5994 29.7675 30.2814 29.8883C31.445 30.0897 32.6085 30.3717 33.772 30.6537C35.6175 31.137 36.781 31.5801 36.8212 31.5801C37.102 31.7009 37.4631 31.5398 37.5835 31.2579C37.7439 30.9759 37.6236 30.6134 37.3829 30.4523C37.3427 30.412 36.2194 29.6869 34.2133 28.8813C33.7319 28.6799 33.1702 28.4785 32.5683 28.2771C32.0468 28.116 31.3647 27.8743 30.5623 27.7132C29.7198 27.5118 28.9976 27.3507 28.2353 27.2701C27.473 27.1896 26.5502 27.109 25.6675 27.0687C25.5472 27.0687 25.4268 27.0687 25.3065 27.0687C25.3867 26.9076 25.4669 26.7868 25.5472 26.6256C25.8681 26.102 26.149 25.5381 26.3897 24.9339C26.7508 24.9742 27.0718 25.0144 27.4329 25.0547L27.7538 25.095C28.5562 25.2158 29.3185 25.3367 30.0407 25.5381C31.4851 25.8603 32.8893 26.2228 34.1732 26.6256C36.2996 27.2701 37.6236 27.8743 37.6637 27.8743C37.9446 27.9952 38.3056 27.8743 38.4661 27.5924C38.6266 27.3104 38.5464 26.9479 38.2655 26.7868C38.2254 26.7465 36.9415 25.9006 34.8151 24.9339C34.2935 24.6922 33.6115 24.4102 32.8893 24.1685C32.2073 23.9269 31.4048 23.6449 30.5623 23.4435C29.8 23.2421 28.8772 23.0004 27.8341 22.8393C27.473 22.7587 27.1119 22.7185 26.7508 22.6782C26.7508 22.3962 26.7107 22.1143 26.7107 21.8323C26.6706 20.9461 26.5903 20.1002 26.8712 19.5363C27.152 18.9321 27.8341 18.4488 28.5964 17.9654C29.2784 17.482 29.9605 16.9987 30.5222 16.3542C30.7629 16.0319 31.0036 15.6694 31.1641 15.3069C31.7258 16.0722 32.5282 16.7973 33.5312 17.5223C34.6948 18.3279 35.8984 18.9724 37.102 19.3349C43.6818 21.3087 45.2867 26.9479 45.3669 27.1896C45.4472 27.5521 45.8083 27.7938 46.1693 27.7938C46.5304 27.7938 46.8915 27.5521 46.9718 27.1896C47.052 26.9479 48.6568 21.3087 55.2367 19.3349C56.5607 18.9321 57.7643 18.3279 58.8074 17.5223C59.8105 16.7973 60.5728 16.0722 61.1746 15.3069C61.3351 15.6694 61.5758 16.0319 61.8165 16.3542C62.3381 17.0389 63.0603 17.5223 63.7423 17.9654C64.4645 18.489 65.1867 18.9724 65.4675 19.5363C65.7484 20.1002 65.7083 20.9461 65.628 21.8323C65.628 22.1143 65.5879 22.3962 65.5879 22.6782C65.2268 22.7185 64.8256 22.799 64.4645 22.8393C63.4615 23.0407 62.5387 23.2421 61.7363 23.4435C60.8937 23.6852 60.0913 23.9269 59.4093 24.1685C58.6871 24.4102 58.005 24.6922 57.4835 24.9339C55.357 25.9006 54.0732 26.7465 54.0331 26.7868C53.7522 26.9882 53.672 27.3104 53.8324 27.5924C53.9929 27.8743 54.354 27.9952 54.6349 27.8743C54.6349 27.8743 55.9589 27.2701 58.1254 26.6256C59.3691 26.2228 60.8135 25.8603 62.2578 25.5381C62.98 25.377 63.7423 25.2561 64.5447 25.1353L64.8256 25.095C65.1867 25.0547 65.5076 25.0144 65.8687 24.9741C66.0693 25.5784 66.3903 26.102 66.7113 26.6659C66.7915 26.827 66.8718 26.9479 66.952 27.109C66.8316 27.109 66.7113 27.109 66.5909 27.109C65.7083 27.1493 64.7855 27.2298 64.0232 27.3507C63.301 27.4715 62.5387 27.5924 61.7363 27.7938C60.9339 27.9549 60.2518 28.1966 59.7302 28.3577C59.1284 28.5591 58.5667 28.7605 58.0853 28.9619C56.0792 29.7675 54.9558 30.5328 54.9157 30.5328C54.6349 30.6939 54.5546 31.0565 54.7151 31.3384C54.8756 31.6204 55.1966 31.7412 55.4774 31.6607C55.4774 31.6607 56.6409 31.2176 58.5266 30.7342C59.6901 30.412 60.8937 30.1703 62.0171 29.9689C62.6992 29.8481 63.4214 29.7675 64.1837 29.6869C64.8657 29.6064 65.628 29.5661 66.5909 29.5258C66.9119 29.5258 67.1927 29.5258 67.5137 29.5258C67.1927 29.9689 66.9119 30.4925 66.5909 31.0565Z" fill="black"/>
<path d="M94.3545 35.0844C94.3545 33.7552 94.2742 32.5468 94.2742 31.1772C94.2742 29.3646 94.3946 27.552 94.3946 25.7797C94.3946 24.6921 95.1168 18.4487 92.7496 18.4487C90.3825 18.4487 90.0615 20.5835 90.0615 21.9531C90.0615 24.7727 92.9903 25.1755 92.9903 26.5047C92.9903 27.1895 91.9873 27.7131 91.3855 27.7131C91.225 27.7131 91.0645 27.6326 90.9442 27.6326C89.2591 27.2701 87.3333 24.6921 87.3333 21.5503C87.3333 18.6904 88.898 15.6694 92.7496 15.6694C97.2833 15.6694 96.8018 19.2543 96.8821 22.1545C96.9623 23.7254 97.0024 25.2963 97.0024 26.8673C97.0024 29.0827 96.8821 31.2981 96.8821 33.5135C97.2432 33.5135 97.6444 33.5538 98.0456 33.5538L100.533 33.5135C102.7 33.4732 101.697 32.7884 102.379 32.7884C103.181 32.7884 104.144 32.6676 104.144 33.3121C104.144 35.0844 103.502 35.89 102.499 35.89C100.012 35.89 97.524 35.8095 95.0766 35.8095C94.7557 35.8497 94.3545 35.3664 94.3545 35.0844ZM106.27 26.9881C106.27 26.2631 106.311 26.3033 106.311 25.5783C106.311 24.9741 105.99 24.2893 105.307 24.1282C104.987 23.7657 104.866 23.3629 104.866 22.8795C104.866 22.235 104.906 21.5905 105.749 21.5905C108.678 21.5905 108.958 23.3226 108.958 25.6991C108.958 27.8743 108.798 31.0967 108.758 35.2858C108.758 36.3734 106.19 35.4067 106.19 35.4067C106.15 33.3524 106.27 28.7201 106.27 26.9881ZM121.476 29.7271C121.476 33.3524 120.955 35.9706 116.662 35.9706H115.578C111.927 35.9706 111.807 32.5065 111.807 29.7271C111.807 28.6799 111.687 27.6326 111.687 26.5853C111.687 23.2018 112.971 21.3086 116.501 21.3086C120.313 21.3086 121.476 23.4434 121.476 26.9075V29.7271ZM113.974 27.3103C113.974 28.1159 113.933 28.8813 113.933 29.6869C113.933 31.4995 114.014 33.2718 116.301 33.2718C118.708 33.2718 118.989 32.6273 119.109 30.3716C119.189 29.4855 119.149 28.559 119.149 28.1562V26.9881C119.149 25.3366 118.949 23.7657 116.782 23.7657C114.415 23.8462 113.974 25.0949 113.974 27.3103ZM130.704 26.6659C130.704 25.4977 130.744 23.6448 129.26 23.6448C127.815 23.6448 127.214 24.1282 127.214 25.5783C127.214 27.4715 127.334 29.3646 127.334 31.2578C127.334 32.2648 127.254 33.2315 127.254 34.1983C127.254 35.4469 127.013 35.6886 125.809 35.6886C125.408 35.6886 124.927 35.5678 124.726 35.2053C124.325 34.4399 124.485 33.5135 124.485 32.6273C124.485 30.0091 124.686 27.3909 124.686 24.7727C124.686 24.4102 124.606 23.7657 124.124 23.7657C123.643 23.5643 123.522 22.3156 123.522 21.792C123.522 21.1072 124.726 21.0266 125.207 21.0266C125.528 21.0266 126.652 21.6711 126.652 21.9531H126.692C127.534 21.3489 128.538 20.9058 129.541 20.9058C132.71 20.9058 133.272 23.4032 133.272 26.0214C133.272 29.3646 133.192 31.4189 133.192 33.4329C133.151 36.4539 133.111 39.9986 137.083 39.9986C139.691 39.9986 138.688 38.3068 140.534 38.3068C141.055 38.3068 141.537 38.7499 141.537 39.2736C141.537 41.5695 138.969 42.6168 137.003 42.6168C132.79 42.6168 130.704 39.7972 130.704 35.7692C130.704 32.8287 130.503 29.848 130.744 26.9478V26.6659H130.704ZM138.528 19.6168C137.645 19.6168 136.562 18.8515 136.562 17.925V17.5222C136.562 16.7569 137.164 16.0319 137.926 16.0319C138.929 16.0319 139.972 16.7166 139.972 17.8042C139.972 18.489 139.25 19.6168 138.528 19.6168ZM139.571 33.2315C139.932 33.3121 140.173 33.4329 140.293 33.8357C140.092 34.7219 140.534 35.8095 139.21 35.8095C138.608 35.8095 137.444 35.4872 137.244 34.8025C136.602 32.8287 136.923 29.8077 136.923 27.6729V25.538C136.923 24.3699 136.722 23.2018 136.722 22.0336C136.722 21.3086 136.963 21.1072 137.404 21.0266C137.645 20.9863 137.966 21.0266 138.287 21.0266C139.45 21.0266 139.29 21.7114 139.29 22.6378C139.29 23.524 139.21 24.4907 139.21 25.3769C139.21 26.3033 139.29 32.9496 139.33 33.1107L139.571 33.2315ZM145.509 33.7552C146.793 31.137 148.558 28.2771 149.842 25.6588C150.243 24.8935 150.724 24.2088 150.965 23.2823C151.085 22.7184 150.965 21.6711 150.283 21.6711C149.641 21.6711 148.999 21.6308 148.317 21.6308H145.107C143.503 21.6308 142.459 21.8322 142.459 24.0074C142.459 24.2088 142.459 24.3699 142.54 24.5713C143.061 24.8935 143.703 25.1352 144.305 25.1352C144.746 25.1352 144.746 24.6921 144.947 24.4102C145.348 23.8462 146.07 24.0879 146.592 24.0879H148.157C147.555 24.9338 145.549 27.9951 145.148 28.9215C144.827 29.6869 143.302 32.3856 143.021 33.0301C142.54 34.1177 141.938 35.9303 143.904 35.9303C145.509 35.9303 147.114 35.8497 148.718 35.8497C150.163 35.8497 151.126 35.6483 151.126 33.9163C151.126 32.9093 151.005 32.4662 149.922 32.4662C149.922 32.4662 148.518 32.3856 148.518 32.7079C148.518 33.7149 147.234 33.7955 146.472 33.7955C146.191 33.7955 145.87 33.7955 145.509 33.7552ZM162.64 25.9005C162.64 28.9215 161.156 30.8147 158.067 30.8147C157.304 30.8147 156.542 30.6133 155.82 30.4925C155.94 32.2245 156.341 33.5538 158.267 33.5538C158.989 33.5538 159.912 33.1912 159.912 32.3454C159.912 32.2245 159.832 32.1037 159.832 31.9828C159.832 30.9758 162.6 30.6939 162.6 32.4662C162.6 35.5275 160.795 36.172 158.107 36.172C154.135 36.172 153.533 34.1983 153.172 30.6536C153.051 29.3243 153.132 28.4785 153.132 27.1089C153.132 24.0476 153.934 21.4697 157.384 21.4697C160.233 21.4697 162.64 22.7587 162.64 25.9005ZM158.347 28.1562H158.508C160.113 28.1562 160.353 27.0687 160.353 25.82C160.353 24.3699 159.591 23.8865 158.107 23.8865C155.699 23.8865 155.579 24.8532 155.579 26.7867C155.579 27.1089 155.539 27.4312 155.659 27.7131C156.301 28.1562 157.545 28.1562 158.347 28.1562ZM169.501 31.6606C169.1 31.6606 168.699 31.58 168.297 31.58V32.7482C168.297 33.8357 168.297 35.3664 167.736 35.6081C167.054 35.9303 165.449 35.8095 165.449 34.883C165.449 34.6011 165.529 34.3191 165.529 34.0774C165.529 31.4592 165.77 28.8813 165.77 26.2631C165.77 25.9408 165.77 24.4102 165.569 24.1685C165.369 23.9268 165.088 23.9268 164.807 23.7254C164.486 23.6851 164.606 23.242 164.606 22.4767C164.606 21.9934 164.767 21.5503 165.409 21.5503C166.051 21.5503 166.893 21.8322 167.495 22.1142C168.458 21.4697 169.22 21.3489 170.384 21.3489C172.751 21.3489 174.035 23.806 174.035 25.9005C174.035 27.9548 173.754 29.8883 171.908 31.137C171.948 32.4259 172.43 33.2718 173.874 33.4732H173.834C174.235 33.5538 174.356 34.1177 174.356 34.4802C174.356 35.4067 173.874 35.7289 172.992 35.7289C170.705 35.7289 169.862 33.5538 169.501 31.6606ZM168.418 24.6921C168.418 26.0214 168.257 27.3506 168.257 28.7201C168.257 28.841 168.257 28.9618 168.297 29.0424C170.183 28.9618 171.507 28.3173 171.507 26.2228C171.507 25.0949 171.146 24.0476 169.822 24.0476C169.341 24.0879 168.779 24.4102 168.418 24.6921ZM186.873 19.6974C186.873 21.0266 186.111 21.3489 184.948 21.3489C183.303 21.3489 185.429 17.7236 181.658 17.7236C180.053 17.7236 179.09 19.1335 179.09 20.6641C179.09 21.9933 181.738 23.6851 182.821 24.2088C185.389 25.4977 187.676 27.552 187.676 30.6536C187.676 34.4399 185.549 36.3331 181.858 36.3331C178.889 36.3331 176.482 34.1983 176.482 31.137C176.482 30.8147 176.402 30.4522 176.402 30.0897C176.402 29.4049 176.923 29.3646 177.485 29.3646C178.087 29.3646 178.649 29.4855 179.13 29.7674C179.531 31.7814 179.291 33.594 181.938 33.594C183.624 33.594 184.827 32.869 184.827 31.0564C184.827 26.0617 176.241 26.1422 176.241 20.8655C176.241 16.8778 178.127 15.0652 182.019 15.0652C184.907 15.0249 186.873 16.7972 186.873 19.6974Z" fill="black"/>
</svg>
