<svg width="152" height="39" viewBox="0 0 152 39" fill="none" xmlns="http://www.w3.org/2000/svg">
<path d="M33.2141 6.90309L36.8913 14.6669L36.589 24.5071C36.589 24.5071 34.5724 30.9595 34.4727 31.0288C34.373 31.0948 34.0375 30.9463 33.2302 29.5114C32.4229 28.0764 30.3731 25.2065 30.2069 24.5071C30.0375 23.8078 29.9711 18.7706 29.9711 18.7706L29.4993 7.92755L33.2141 6.90309Z" fill="#16992B"/>
<path d="M33.2534 6.85875C33.2534 6.85875 39.878 13.1825 39.8813 19.272C39.8813 23.5109 37.7983 25.8431 37.2933 26.6777C36.7883 27.5123 35.6122 29.3134 35.3431 29.6796C35.074 30.0458 34.7485 30.7385 34.5159 31.0057C34.28 31.2729 34.5391 29.2442 34.8083 28.4129C35.0774 27.5783 35.8116 23.0491 35.8149 20.0736C35.8182 16.8144 35.5391 12.8658 34.393 10.4742C33.1272 7.83518 31.9378 6.58825 31.9378 6.58825L33.2534 6.85875Z" fill="#56C140"/>
<path d="M35.2456 0.547702C34.5779 0.227722 34.3486 1.6132 34.342 1.86061C34.3357 2.09554 33.6823 2.76175 33.0049 3.45254C32.9689 3.48923 32.9328 3.526 32.8968 3.56277C31.9025 4.57532 31.4402 4.99549 31 5.39556C30.8725 5.51143 30.7207 5.63429 30.5845 5.7607C31.1282 6.33527 31.1544 6.89248 31.1544 6.89248C31.1544 6.89248 31.8997 6.89248 32.3381 7.67602C32.7841 7.2553 33.3285 6.6798 33.9034 6.08442C34.0663 5.91563 34.216 5.7606 34.342 5.6311C34.3975 5.57425 34.4528 5.51789 34.5077 5.46188C35.2973 4.65652 36.0172 3.92227 36.4582 2.83045C36.8337 1.9002 36.3984 1.0953 35.2456 0.547702Z" fill="#16992B"/>
<path d="M25.2998 30.1056C22.3413 32.5706 18.9021 34.1554 15.3535 34.689C12.1263 35.1739 8.98853 34.7224 6.42459 33.4175C4.42214 34.1216 2.31098 33.6792 1.0872 32.231C1.04273 32.1784 1.00045 32.1253 0.959688 32.0709L31.1975 6.85957C32.0743 6.94663 32.3811 7.64311 32.3811 7.64311C32.8195 8.16188 33.0885 10.4271 31.8914 12.3147C32.7127 15.0355 32.6031 18.1581 31.5641 21.2021C30.4167 24.5694 28.25 27.6477 25.2998 30.1056Z" fill="#FFDB2D"/>
<path d="M31.1975 6.85957C30.8467 4.77012 28.3311 4.78509 26.3807 5.49443C20.8685 2.43012 13.0859 3.65365 7.13559 8.61126C4.09153 11.1475 1.89183 14.3288 0.77358 17.8114C-0.247853 20.9919 -0.255619 24.2152 0.737551 26.9837C-0.182313 28.7233 -0.112545 30.6694 0.959688 32.0709L31.1975 6.85957Z" fill="#FFE671"/>
<path d="M3.56984 21.8144C2.93808 16.5712 6.37493 13.4793 6.5216 13.3502L8.48778 15.5525L8.49579 15.5454C8.39656 15.6355 6.07034 17.7916 6.51294 21.4648L3.56984 21.8144Z" fill="#FFF6C4"/>
<path d="M71.3797 29.6401C70.7098 29.9594 70.0131 30.2787 69.2896 30.598C68.5929 30.8906 67.8427 31.1567 67.0388 31.3961C66.2349 31.609 65.3507 31.7819 64.386 31.915C63.4482 32.048 62.4166 32.1145 61.2912 32.1145C57.7005 32.1145 54.9272 31.3163 52.9711 29.72C51.0418 28.1236 50.0772 25.463 50.0772 21.7381C50.0772 19.583 50.4122 17.5609 51.082 15.6719C51.7519 13.7563 52.7434 12.0934 54.0564 10.6832C55.3693 9.24651 56.9905 8.11575 58.9197 7.29096C60.849 6.46617 63.0597 6.05377 65.5517 6.05377C66.7307 6.05377 67.8025 6.13359 68.7671 6.29323C69.7586 6.45286 70.6428 6.66571 71.4199 6.93178C72.2237 7.17123 72.9338 7.43729 73.5501 7.72996C74.1932 8.02263 74.7693 8.30199 75.2784 8.56806L73.8315 15.9912H66.5967C66.6235 15.7251 66.6503 15.3792 66.6771 14.9535C66.7307 14.5278 66.7708 14.1021 66.7976 13.6764C66.8244 13.2241 66.8512 12.7851 66.878 12.3594C66.9048 11.9337 66.9182 11.5746 66.9182 11.2819C66.9182 11.069 66.9048 10.8296 66.878 10.5635C66.8512 10.2708 66.7842 9.99148 66.6771 9.72542C66.5699 9.45936 66.3957 9.24651 66.1546 9.08688C65.9402 8.90063 65.6454 8.80751 65.2703 8.80751C64.5736 8.80751 63.9305 9.10018 63.341 9.68551C62.7783 10.2442 62.2692 11.0025 61.8137 11.9603C61.3581 12.8916 60.9562 13.9558 60.6079 15.1531C60.2595 16.3504 59.9648 17.5742 59.7236 18.8247C59.5093 20.0486 59.3351 21.2592 59.2011 22.4565C59.0939 23.6538 59.0403 24.7047 59.0403 25.6093C59.0403 25.8754 59.0537 26.2079 59.0805 26.607C59.1073 27.0061 59.1877 27.3919 59.3217 27.7644C59.4557 28.1369 59.6566 28.4562 59.9246 28.7222C60.2193 28.9883 60.6079 29.1213 61.0902 29.1213C61.9209 29.1213 62.7247 28.6158 63.5018 27.6048C64.2789 26.5671 64.9621 24.7313 65.5517 22.0973H72.9874L71.3797 29.6401Z" fill="#08360F"/>
<path d="M77.2749 16.1109C78.6415 15.4458 80.0349 14.9668 81.455 14.6742C82.902 14.3549 84.5097 14.1953 86.2782 14.1953C87.9931 14.1953 89.4133 14.3283 90.5387 14.5944C91.6641 14.8604 92.5618 15.2462 93.2317 15.7517C93.9016 16.2572 94.3705 16.8559 94.6385 17.5476C94.9064 18.2394 95.0404 19.0243 95.0404 19.9023C95.0404 20.4078 95.0002 20.9532 94.9198 21.5386C94.8662 22.1239 94.7992 22.6161 94.7188 23.0152L92.8298 31.7952H86.3586L85.6351 29.241H85.394C84.5365 30.1723 83.5317 30.8906 82.3795 31.3961C81.2541 31.8751 80.1287 32.1145 79.0032 32.1145C78.3601 32.1145 77.7304 32.0214 77.1141 31.8351C76.4979 31.6489 75.9485 31.3695 75.4662 30.9971C74.9839 30.598 74.5954 30.1057 74.3006 29.5204C74.0059 28.9085 73.8585 28.1768 73.8585 27.3254C73.8585 25.9419 74.2336 24.851 74.9839 24.0528C75.761 23.2281 76.7658 22.6161 77.9984 22.217C79.2578 21.7913 80.6646 21.5253 82.2187 21.4188C83.7996 21.3124 85.3806 21.2592 86.9615 21.2592C87.0151 20.9931 87.0821 20.6206 87.1625 20.1417C87.2429 19.6362 87.2831 19.1972 87.2831 18.8247C87.2831 18.3458 87.1491 17.9068 86.8811 17.5077C86.64 17.082 86.1175 16.8692 85.3136 16.8692C84.3757 16.8692 83.6791 17.1485 83.2235 17.7073C82.7948 18.2394 82.5135 18.8912 82.3795 19.6628H76.5112L77.2749 16.1109ZM86.5194 23.1349H85.7959C85.0188 23.1349 84.349 23.2414 83.7862 23.4542C83.2503 23.6404 82.8082 23.8932 82.4599 24.2125C82.1383 24.5318 81.8972 24.8909 81.7364 25.29C81.5756 25.6891 81.4952 26.0882 81.4952 26.4873C81.4952 27.1259 81.656 27.6048 81.9775 27.924C82.3259 28.2433 82.7278 28.403 83.1833 28.403C83.7461 28.403 84.2954 28.2034 84.8313 27.8043C85.394 27.4052 85.7423 26.8731 85.8763 26.2079L86.5194 23.1349Z" fill="#08360F"/>
<path d="M102.909 38.5H94.7091L99.7735 14.6343H106.325L107.048 17.1885H107.29C108.254 16.1774 109.326 15.4591 110.505 15.0334C111.711 14.581 112.89 14.3549 114.042 14.3549C114.98 14.3549 115.757 14.5012 116.373 14.7939C117.016 15.06 117.526 15.4324 117.901 15.9114C118.276 16.3903 118.544 16.9623 118.705 17.6275C118.865 18.2926 118.946 18.9977 118.946 19.7426C118.946 20.1151 118.919 20.6739 118.865 21.4188C118.812 22.1638 118.691 23.0019 118.504 23.9331C118.316 24.8377 118.048 25.7822 117.7 26.7667C117.351 27.7245 116.882 28.6025 116.293 29.4007C115.73 30.1989 115.007 30.8507 114.122 31.3562C113.265 31.8618 112.233 32.1145 111.028 32.1145C110.358 32.1145 109.701 32.0347 109.058 31.8751C108.442 31.7154 107.879 31.5026 107.37 31.2365C106.861 30.9704 106.405 30.6645 106.003 30.3186C105.628 29.9461 105.347 29.5736 105.159 29.2011H104.918L102.909 38.5ZM107.169 28.2433C107.812 28.2433 108.348 27.9107 108.777 27.2456C109.206 26.5538 109.554 25.7556 109.822 24.851C110.09 23.9198 110.277 23.0019 110.385 22.0973C110.518 21.1661 110.585 20.4743 110.585 20.022C110.585 19.4899 110.492 19.0509 110.304 18.705C110.143 18.3591 109.835 18.1862 109.38 18.1862C108.871 18.1862 108.388 18.3724 107.933 18.7449C107.477 19.0908 107.142 19.3968 106.928 19.6628L105.36 26.9662C105.575 27.2589 105.829 27.5516 106.124 27.8442C106.419 28.1103 106.767 28.2433 107.169 28.2433Z" fill="#08360F"/>
<path d="M123.286 14.6343H129.837L130.44 17.6275H130.722C131.338 16.6696 132.128 15.8581 133.093 15.193C134.058 14.5278 135.331 14.1953 136.911 14.1953C137.019 14.1953 137.179 14.2086 137.394 14.2352C137.635 14.2352 137.89 14.2751 138.157 14.3549C138.452 14.4081 138.747 14.5012 139.042 14.6343C139.363 14.7407 139.671 14.9003 139.966 15.1132L138.198 23.3345H133.817C133.763 21.6849 133.616 20.5408 133.374 19.9023C133.133 19.2371 132.745 18.9046 132.209 18.9046C131.941 18.9046 131.646 18.9711 131.325 19.1041C131.03 19.2105 130.722 19.4633 130.4 19.8624L127.828 31.7952H119.628L123.286 14.6343Z" fill="#08360F"/>
<path d="M147.217 31.7952H139.058L142.715 14.6343H150.955L147.217 31.7952ZM152 9.40615C152 10.0181 151.866 10.5502 151.598 11.0025C151.357 11.4548 151.022 11.8406 150.593 12.1599C150.191 12.4792 149.722 12.7186 149.186 12.8783C148.651 13.0379 148.101 13.1177 147.539 13.1177C146.467 13.1177 145.569 12.865 144.846 12.3594C144.122 11.8539 143.76 11.0557 143.76 9.96488C143.76 9.37954 143.881 8.86072 144.122 8.40842C144.363 7.92951 144.685 7.54372 145.087 7.25105C145.515 6.93178 145.998 6.69232 146.534 6.53268C147.096 6.37305 147.673 6.29323 148.262 6.29323C149.307 6.29323 150.191 6.54599 150.915 7.0515C151.638 7.55702 152 8.3419 152 9.40615Z" fill="#08360F"/>
</svg>
